<?xml version="1.0" encoding="UTF-8" standalone="no"?><svg xmlns="http://www.w3.org/2000/svg" xmlns:xlink="http://www.w3.org/1999/xlink" contentStyleType="text/css" height="1059px" preserveAspectRatio="none" style="width:1700px;height:1059px;background:#FFFFFF;" version="1.1" viewBox="0 0 1700 1059" width="1700px" zoomAndPan="magnify"><defs/><g><g id="elem_if"><ellipse cx="644.5567" cy="555.5113" fill="#F1F1F1" rx="90.5567" ry="20.5113" style="stroke:#181818;stroke-width:0.5;"/><text fill="#000000" font-family="sans-serif" font-size="14" lengthAdjust="spacing" textLength="143" x="573.0567" y="558.358">if-Funktion bei Twig</text></g><g id="elem_mock"><ellipse cx="610.3518" cy="849.5704" fill="#F1F1F1" rx="88.3518" ry="20.0704" style="stroke:#181818;stroke-width:0.5;"/><text fill="#000000" font-family="sans-serif" font-size="14" lengthAdjust="spacing" textLength="138" x="541.3518" y="852.417">Mocking von Daten</text></g><g id="elem_rendV"><ellipse cx="90.4263" cy="555.2853" fill="#F1F1F1" rx="84.4263" ry="19.2853" style="stroke:#181818;stroke-width:0.5;"/><text fill="#000000" font-family="sans-serif" font-size="14" lengthAdjust="spacing" textLength="129" x="25.805" y="558.1739">Rendern von View</text></g><g id="elem_empFunc"><ellipse cx="522.3735" cy="269.7747" fill="#F1F1F1" rx="79.3735" ry="18.2747" style="stroke:#181818;stroke-width:0.5;"/><text fill="#000000" font-family="sans-serif" font-size="14" lengthAdjust="spacing" textLength="117" x="461.9676" y="273.2248">empty-Funktion</text></g><g id="elem_san"><ellipse cx="1201.5567" cy="270.0113" fill="#F1F1F1" rx="90.5567" ry="20.5113" style="stroke:#181818;stroke-width:0.5;"/><text fill="#000000" font-family="sans-serif" font-size="14" lengthAdjust="spacing" textLength="143" x="1130.0567" y="272.858">sanitizen von Daten</text></g><g id="elem_Twig"><ellipse cx="146.3338" cy="270.0287" fill="#F1F1F1" rx="34.8338" ry="14.5287" style="stroke:#181818;stroke-width:0.5;"/><text fill="#000000" font-family="sans-serif" font-size="14" lengthAdjust="spacing" textLength="33" x="129.1671" y="273.1168">Twig</text></g><g id="elem_PHP"><ellipse cx="1057.2843" cy="20.5236" fill="#F1F1F1" rx="31.2843" ry="14.5236" style="stroke:#181818;stroke-width:0.5;"/><text fill="#000000" font-family="sans-serif" font-size="14" lengthAdjust="spacing" textLength="28" x="1043.2843" y="23.3703">PHP</text></g><g id="elem_Model"><ellipse cx="610.6531" cy="1038.6013" fill="#F1F1F1" rx="42.1531" ry="14.6013" style="stroke:#181818;stroke-width:0.5;"/><text fill="#000000" font-family="sans-serif" font-size="14" lengthAdjust="spacing" textLength="43" x="586.1531" y="1042.3489">Model</text></g><g id="elem_GMN18"><path d="M506.5,667 L506.5,752.6641 A0,0 0 0 0 506.5,752.6641 L782.5,752.6641 A0,0 0 0 0 782.5,752.6641 L782.5,677 L772.5,667 L648.5,667 L644.5,576.125 L640.5,667 L506.5,667 A0,0 0 0 0 506.5,667 " fill="#FEFFDD" style="stroke:#181818;stroke-width:0.5;"/><path d="M772.5,667 L772.5,677 L782.5,677 L772.5,667 " fill="#FEFFDD" style="stroke:#181818;stroke-width:0.5;"/><text fill="#000000" font-family="sans-serif" font-size="13" lengthAdjust="spacing" textLength="183" x="512.5" y="684.0669">In Twig können if-Funktionen</text><text fill="#000000" font-family="sans-serif" font-size="13" lengthAdjust="spacing" textLength="209" x="512.5" y="699.1997">wie im PHP geschrieben werden.</text><text fill="#000000" font-family="sans-serif" font-size="13" lengthAdjust="spacing" textLength="245" x="512.5" y="714.3325">Somit kann bei einem True-Statement</text><text fill="#000000" font-family="sans-serif" font-size="13" lengthAdjust="spacing" textLength="203" x="512.5" y="729.4653">eine andere Ausgabe angezeigt</text><text fill="#000000" font-family="sans-serif" font-size="13" lengthAdjust="spacing" textLength="255" x="512.5" y="744.5981">werden, als bei einem False-Statement.</text></g><g id="elem_GMN21"><path d="M734.5,814 L734.5,845.5 L699.05,849.5 L734.5,853.5 L734.5,884.5313 A0,0 0 0 0 734.5,884.5313 L1044.5,884.5313 A0,0 0 0 0 1044.5,884.5313 L1044.5,824 L1034.5,814 L734.5,814 A0,0 0 0 0 734.5,814 " fill="#FEFFDD" style="stroke:#181818;stroke-width:0.5;"/><path d="M1034.5,814 L1034.5,824 L1044.5,824 L1034.5,814 " fill="#FEFFDD" style="stroke:#181818;stroke-width:0.5;"/><text fill="#000000" font-family="sans-serif" font-size="13" lengthAdjust="spacing" textLength="256" x="740.5" y="831.0669">Mocking ist das vortäuschen von Daten.</text><text fill="#000000" font-family="sans-serif" font-size="13" lengthAdjust="spacing" textLength="208" x="740.5" y="846.1997">Somit kann beim entwickeln von</text><text fill="#000000" font-family="sans-serif" font-size="13" lengthAdjust="spacing" textLength="289" x="740.5" y="861.3325">einem Programm ohne komplexe Datenbank</text><text fill="#000000" font-family="sans-serif" font-size="13" lengthAdjust="spacing" textLength="122" x="740.5" y="876.4653">gearbeitet werden.</text></g><g id="elem_GMN24"><path d="M210.5,505 L210.5,551.5 L175.055,555.5 L210.5,559.5 L210.5,605.7969 A0,0 0 0 0 210.5,605.7969 L518.5,605.7969 A0,0 0 0 0 518.5,605.7969 L518.5,515 L508.5,505 L210.5,505 A0,0 0 0 0 210.5,505 " fill="#FEFFDD" style="stroke:#181818;stroke-width:0.5;"/><path d="M508.5,505 L508.5,515 L518.5,515 L508.5,505 " fill="#FEFFDD" style="stroke:#181818;stroke-width:0.5;"/><text fill="#000000" font-family="sans-serif" font-size="13" lengthAdjust="spacing" textLength="231" x="216.5" y="522.0669">Die View ist die Benutzeröberfläche,</text><text fill="#000000" font-family="sans-serif" font-size="13" lengthAdjust="spacing" textLength="258" x="216.5" y="537.1997">welche der Enduser zu sehen bekommt.</text><text fill="#000000" font-family="sans-serif" font-size="13" lengthAdjust="spacing" textLength="263" x="216.5" y="552.3325">Diese wird bei Twig in HTML geschrieben.</text><text fill="#000000" font-family="sans-serif" font-size="13" lengthAdjust="spacing" textLength="247" x="216.5" y="567.4653">Mithilfe vom Controller und des Models</text><text fill="#000000" font-family="sans-serif" font-size="13" lengthAdjust="spacing" textLength="287" x="216.5" y="582.5981">werden dann die Daten aus einer Datenbank</text><text fill="#000000" font-family="sans-serif" font-size="13" lengthAdjust="spacing" textLength="128" x="216.5" y="597.731">in die View geladen.</text></g><g id="elem_GMN27"><path d="M637,197 L637,266 L602.238,270 L637,274 L637,343.1953 A0,0 0 0 0 637,343.1953 L1004,343.1953 A0,0 0 0 0 1004,343.1953 L1004,207 L994,197 L637,197 A0,0 0 0 0 637,197 " fill="#FEFFDD" style="stroke:#181818;stroke-width:0.5;"/><path d="M994,197 L994,207 L1004,207 L994,197 " fill="#FEFFDD" style="stroke:#181818;stroke-width:0.5;"/><text fill="#000000" font-family="sans-serif" font-size="13" lengthAdjust="spacing" textLength="346" x="643" y="214.0669">die empty-Funktion überprüft ob eine Variable leer ist.</text><text fill="#000000" font-family="sans-serif" font-size="13" lengthAdjust="spacing" textLength="251" x="643" y="229.1997">Trifft dies zu, wird true zurückgegeben.</text><text fill="#000000" font-family="sans-serif" font-size="13" lengthAdjust="spacing" textLength="293" x="643" y="244.3325">Z.B. kann überprüft werden ob in der Variable</text><text fill="#000000" font-family="sans-serif" font-size="13" lengthAdjust="spacing" textLength="204" x="643" y="259.4653">$username etwas enthalten ist.</text><text fill="#000000" font-family="sans-serif" font-size="13" lengthAdjust="spacing" textLength="4" x="643" y="274.5981"> </text><text fill="#000000" font-family="sans-serif" font-size="13" lengthAdjust="spacing" textLength="106" x="643" y="289.731">$username = "";</text><text fill="#000000" font-family="sans-serif" font-size="13" lengthAdjust="spacing" textLength="323" x="643" y="304.8638">if (empty($username)) { // username leer =&gt; true</text><text fill="#000000" font-family="sans-serif" font-size="13" lengthAdjust="spacing" textLength="176" x="651" y="319.9966">echo "Username is empty";</text><text fill="#000000" font-family="sans-serif" font-size="13" lengthAdjust="spacing" textLength="9" x="643" y="335.1294">}</text></g><g id="elem_GMN30"><path d="M1327.5,174 L1327.5,266 L1292.03,270 L1327.5,274 L1327.5,365.5938 A0,0 0 0 0 1327.5,365.5938 L1693.5,365.5938 A0,0 0 0 0 1693.5,365.5938 L1693.5,184 L1683.5,174 L1327.5,174 A0,0 0 0 0 1327.5,174 " fill="#FEFFDD" style="stroke:#181818;stroke-width:0.5;"/><path d="M1683.5,174 L1683.5,184 L1693.5,184 L1683.5,174 " fill="#FEFFDD" style="stroke:#181818;stroke-width:0.5;"/><text fill="#000000" font-family="sans-serif" font-size="13" lengthAdjust="spacing" textLength="275" x="1333.5" y="191.0669">Mit dem Sanitizen können mit Filtern Inputs</text><text fill="#000000" font-family="sans-serif" font-size="13" lengthAdjust="spacing" textLength="292" x="1333.5" y="206.1997">bereinigt werden. Das sanitizen ist wichtig für</text><text fill="#000000" font-family="sans-serif" font-size="13" lengthAdjust="spacing" textLength="345" x="1333.5" y="221.3325">die Sicherheit, z.B. für eine Datenbank (SQL-Injection).</text><text fill="#000000" font-family="sans-serif" font-size="13" lengthAdjust="spacing" textLength="257" x="1333.5" y="236.4653">Somit wird aus "&lt;h1&gt;Hello World&lt;/h1&gt;"</text><text fill="#000000" font-family="sans-serif" font-size="13" lengthAdjust="spacing" textLength="254" x="1333.5" y="251.5981">mit dem Filter FILTER_SANITIZE_STRING</text><text fill="#000000" font-family="sans-serif" font-size="13" lengthAdjust="spacing" textLength="86" x="1333.5" y="266.731">"Hello World".</text><text fill="#000000" font-family="sans-serif" font-size="13" lengthAdjust="spacing" textLength="4" x="1333.5" y="281.8638"> </text><text fill="#000000" font-family="sans-serif" font-size="13" lengthAdjust="spacing" textLength="41" x="1333.5" y="296.9966">&lt;?php</text><text fill="#000000" font-family="sans-serif" font-size="13" lengthAdjust="spacing" textLength="211" x="1333.5" y="312.1294">$str = "&lt;h1&gt;Hello World!&lt;/h1&gt;";</text><text fill="#000000" font-family="sans-serif" font-size="13" lengthAdjust="spacing" textLength="336" x="1333.5" y="327.2622">$newstr = filter_var($str, FILTER_SANITIZE_STRING);</text><text fill="#000000" font-family="sans-serif" font-size="13" lengthAdjust="spacing" textLength="247" x="1333.5" y="342.395">echo $newstr; // Gibt "Hello World" aus</text><text fill="#000000" font-family="sans-serif" font-size="13" lengthAdjust="spacing" textLength="17" x="1333.5" y="357.5278">?&gt;</text></g><!--MD5=[ef98e4190bb7f1cc5f8c84a47d637884]
link Twig to if--><g id="link_Twig_if"><path d="M170.695,284.774 C251.336,330.681 511.299,478.672 607.903,533.666 " fill="none" id="Twig-if" style="stroke:#181818;stroke-width:1.0;"/><polygon fill="#181818" points="166.022,282.114,171.866,290.0417,170.3677,284.5868,175.8225,283.0886,166.022,282.114" style="stroke:#181818;stroke-width:1.0;"/><polygon fill="#181818" points="612.379,536.214,606.5362,528.2855,608.0337,533.7405,602.5786,535.238,612.379,536.214" style="stroke:#181818;stroke-width:1.0;"/><text fill="#000000" font-family="sans-serif" font-size="13" lengthAdjust="spacing" textLength="60" x="450.5" y="440.0669">{% if %}</text></g><!--MD5=[03f56f772f282819ec4d7b98ba9c5458]
link Twig to rendV--><g id="link_Twig_rendV"><path d="M142.818,289.642 C132.971,339.492 106.043,475.815 95.1576,530.921 " fill="none" id="Twig-rendV" style="stroke:#181818;stroke-width:1.0;"/><polygon fill="#181818" points="143.799,284.674,138.1315,292.7288,142.8305,289.5793,145.98,294.2783,143.799,284.674" style="stroke:#181818;stroke-width:1.0;"/><polygon fill="#181818" points="94.1554,535.994,99.8231,527.9394,95.124,531.0887,91.9747,526.3896,94.1554,535.994" style="stroke:#181818;stroke-width:1.0;"/><text fill="#000000" font-family="sans-serif" font-size="13" lengthAdjust="spacing" textLength="252" x="116.5" y="440.0669">Mit Twig eine View (Template) erstellen</text></g><!--MD5=[f1b265172148c839418728616765ad7c]
link PHP to mock--><g id="link_PHP_mock"><path d="M1057.5,40.44 C1057.5,57.064 1057.5,81.884 1057.5,103.5 C1057.5,103.5 1057.5,103.5 1057.5,711 C1057.5,869.318 867.559,766.609 716.5,814 C699.264,819.407 680.504,825.458 663.624,830.965 " fill="none" id="PHP-mock" style="stroke:#181818;stroke-width:1.0;"/><polygon fill="#181818" points="1057.5,35.14,1053.5,44.14,1057.5,40.14,1061.5,44.14,1057.5,35.14" style="stroke:#181818;stroke-width:1.0;"/><polygon fill="#181818" points="658.449,832.655,668.246,833.6648,663.2022,831.1035,665.7635,826.0597,658.449,832.655" style="stroke:#181818;stroke-width:1.0;"/><text fill="#000000" font-family="sans-serif" font-size="13" lengthAdjust="spacing" textLength="213" x="1058.5" y="440.0669">Fakedaten mittels Array erstellen</text></g><!--MD5=[9c8535343ca951bda7e4066f4b5dd593]
link PHP to empFunc--><g id="link_PHP_empFunc"><path d="M1023.59,27.86 C946.87,43.36 756.008,88.272 619.5,174 C587.499,194.097 557.539,226.278 539.612,247.528 " fill="none" id="PHP-empFunc" style="stroke:#181818;stroke-width:1.0;"/><polygon fill="#181818" points="1028.92,26.79,1019.3079,24.6435,1024.0182,27.7761,1020.8856,32.4864,1028.92,26.79" style="stroke:#181818;stroke-width:1.0;"/><polygon fill="#181818" points="536.191,251.625,545.0302,247.2811,539.396,247.7873,538.8898,242.1531,536.191,251.625" style="stroke:#181818;stroke-width:1.0;"/><text fill="#000000" font-family="sans-serif" font-size="13" lengthAdjust="spacing" textLength="194" x="779.5" y="109.0669">überprüfen ob Variable leer ist</text></g><!--MD5=[baaae2f75737c14254588deba1f697f1]
link PHP to san--><g id="link_PHP_san"><path d="M1068.31,39.46 C1073.01,47.29 1078.55,56.584 1083.5,65 C1121.66,129.902 1165.93,206.907 1187.81,245.079 " fill="none" id="PHP-san" style="stroke:#181818;stroke-width:1.0;"/><polygon fill="#181818" points="1065.51,34.8,1066.7344,44.5725,1068.093,39.0812,1073.5843,40.4397,1065.51,34.8" style="stroke:#181818;stroke-width:1.0;"/><polygon fill="#181818" points="1190.37,249.538,1189.3708,239.74,1187.8862,245.1985,1182.4277,243.714,1190.37,249.538" style="stroke:#181818;stroke-width:1.0;"/><text fill="#000000" font-family="sans-serif" font-size="13" lengthAdjust="spacing" textLength="253" x="1112.5" y="109.0669">Mit FILTER_SANITIZE_* Eingabe reinigen</text></g><!--MD5=[504012b8975095e92b3d0b348b76423c]
link rendV to mock--><g id="link_rendV_mock"><path d="M103.1492,579.457 C127.098,620.723 183.118,707.377 254.5,753 C337.466,806.026 449.31,829.81 525.344,840.348 " fill="none" id="rendV-mock" style="stroke:#181818;stroke-width:1.0;"/><polygon fill="#181818" points="100.5242,574.893,101.544,584.6889,103.0171,579.2272,108.4788,580.7003,100.5242,574.893" style="stroke:#181818;stroke-width:1.0;"/><polygon fill="#181818" points="530.3,841.023,521.9231,835.8434,525.3459,840.3473,520.842,843.7701,530.3,841.023" style="stroke:#181818;stroke-width:1.0;"/><text fill="#000000" font-family="sans-serif" font-size="13" lengthAdjust="spacing" textLength="232" x="255.5" y="714.5669">Die Mocking-Daten in die View laden</text></g><!--MD5=[8e3da90a5a4d0bb30f41066476d66e79]
link mock to Model--><g id="link_mock_Model"><path d="M610.5,874.935 C610.5,912.733 610.5,984.5679 610.5,1018.6501 " fill="none" id="mock-Model" style="stroke:#181818;stroke-width:1.0;"/><polygon fill="#181818" points="610.5,869.808,606.5,878.808,610.5,874.808,614.5,878.808,610.5,869.808" style="stroke:#181818;stroke-width:1.0;"/><polygon fill="#181818" points="610.5,1023.785,614.5,1014.785,610.5,1018.785,606.5,1014.785,610.5,1023.785" style="stroke:#181818;stroke-width:1.0;"/><text fill="#000000" font-family="sans-serif" font-size="13" lengthAdjust="spacing" textLength="225" x="611.5" y="959.0669">Die Daten werden im Model erstellt</text></g><!--MD5=[72b77885be7d5051cd98506ff93bb407]
link empFunc to if--><g id="link_empFunc_if"><path d="M532.135,293.391 C554.681,345.782 610.722,476.007 634.051,530.218 " fill="none" id="empFunc-if" style="stroke:#181818;stroke-width:1.0;"/><polygon fill="#181818" points="530.132,288.734,530.0166,298.5822,532.109,293.3265,537.3646,295.419,530.132,288.734" style="stroke:#181818;stroke-width:1.0;"/><polygon fill="#181818" points="636.072,534.914,636.19,525.0658,634.0962,530.3209,628.8411,528.2271,636.072,534.914" style="stroke:#181818;stroke-width:1.0;"/><text fill="#000000" font-family="sans-serif" font-size="13" lengthAdjust="spacing" textLength="246" x="598.5" y="440.0669">empty() in if nutzen um zu überprüfen</text></g><!--MD5=[b43530ff955bce6e1c6b39fa581eddc6]
@startuml
' ### Vorgegebene Begriffe ###
(if-Funktion bei Twig) as (if)
(Mocking von Daten) as (mock)
(Rendern von View) as (rendV)
(empty-Funktion) as (empFunc)
(sanitizen von Daten) as (san)

' ### Hilfsbegriffe ###
(Twig)
(PHP)
(Model)

' ### Map ###
(Twig) <- - -> (if) : {% if %}
(Twig) <- - -> (rendV) : Mit Twig eine View (Template) erstellen

(PHP) <- - -> (mock) : Fakedaten mittels Array erstellen
(PHP) <- - -> (empFunc) : überprüfen ob Variable leer ist
(PHP) <- - -> (san) : Mit FILTER_SANITIZE_* Eingabe reinigen

(rendV) <- - -> (mock) : Die Mocking-Daten in die View laden

(mock) <- - -> (Model) : Die Daten werden im Model erstellt

(empFunc) <- - -> (if) : empty() in if nutzen um zu überprüfen

' ### Notes ###
note bottom of (if)
  In Twig können if-Funktionen
  wie im PHP geschrieben werden.
  Somit kann bei einem True-Statement
  eine andere Ausgabe angezeigt
  werden, als bei einem False-Statement.
end note

note right of (mock)
  Mocking ist das vortäuschen von Daten.
  Somit kann beim entwickeln von
  einem Programm ohne komplexe Datenbank
  gearbeitet werden.
end note

note right of (rendV)
  Die View ist die Benutzeröberfläche,
  welche der Enduser zu sehen bekommt.
  Diese wird bei Twig in HTML geschrieben.
  Mithilfe vom Controller und des Models
  werden dann die Daten aus einer Datenbank
  in die View geladen.
end note

note right of (empFunc)
  die empty-Funktion überprüft ob eine Variable leer ist.
  Trifft dies zu, wird true zurückgegeben.
  Z.B. kann überprüft werden ob in der Variable
  $username etwas enthalten ist.
  
  $username = "";
  if (empty($username)) { // username leer => true
    echo "Username is empty";
  }
end note

note right of (san)
  Mit dem Sanitizen können mit Filtern Inputs
  bereinigt werden. Das sanitizen ist wichtig für
  die Sicherheit, z.B. für eine Datenbank (SQL-Injection).
  Somit wird aus "<h1>Hello World</h1>"
  mit dem Filter FILTER_SANITIZE_STRING
  "Hello World".
  
  <?php
  $str = "<h1>Hello World!</h1>";
  $newstr = filter_var($str, FILTER_SANITIZE_STRING);
  echo $newstr; // Gibt "Hello World" aus
  ?>
end note
@enduml

@startuml
(if-Funktion bei Twig) as (if)
(Mocking von Daten) as (mock)
(Rendern von View) as (rendV)
(empty-Funktion) as (empFunc)
(sanitizen von Daten) as (san)

(Twig)
(PHP)
(Model)

(Twig) <- - -> (if) : {% if %}
(Twig) <- - -> (rendV) : Mit Twig eine View (Template) erstellen

(PHP) <- - -> (mock) : Fakedaten mittels Array erstellen
(PHP) <- - -> (empFunc) : überprüfen ob Variable leer ist
(PHP) <- - -> (san) : Mit FILTER_SANITIZE_* Eingabe reinigen

(rendV) <- - -> (mock) : Die Mocking-Daten in die View laden

(mock) <- - -> (Model) : Die Daten werden im Model erstellt

(empFunc) <- - -> (if) : empty() in if nutzen um zu überprüfen

note bottom of (if)
  In Twig können if-Funktionen
  wie im PHP geschrieben werden.
  Somit kann bei einem True-Statement
  eine andere Ausgabe angezeigt
  werden, als bei einem False-Statement.
end note

note right of (mock)
  Mocking ist das vortäuschen von Daten.
  Somit kann beim entwickeln von
  einem Programm ohne komplexe Datenbank
  gearbeitet werden.
end note

note right of (rendV)
  Die View ist die Benutzeröberfläche,
  welche der Enduser zu sehen bekommt.
  Diese wird bei Twig in HTML geschrieben.
  Mithilfe vom Controller und des Models
  werden dann die Daten aus einer Datenbank
  in die View geladen.
end note

note right of (empFunc)
  die empty-Funktion überprüft ob eine Variable leer ist.
  Trifft dies zu, wird true zurückgegeben.
  Z.B. kann überprüft werden ob in der Variable
  $username etwas enthalten ist.
  
  $username = "";
  if (empty($username)) { // username leer => true
    echo "Username is empty";
  }
end note

note right of (san)
  Mit dem Sanitizen können mit Filtern Inputs
  bereinigt werden. Das sanitizen ist wichtig für
  die Sicherheit, z.B. für eine Datenbank (SQL-Injection).
  Somit wird aus "<h1>Hello World</h1>"
  mit dem Filter FILTER_SANITIZE_STRING
  "Hello World".
  
  <?php
  $str = "<h1>Hello World!</h1>";
  $newstr = filter_var($str, FILTER_SANITIZE_STRING);
  echo $newstr; // Gibt "Hello World" aus
  ?>
end note
@enduml

PlantUML version 1.2022.13beta7(Unknown compile time)
(GPL source distribution)
Java Runtime: Java(TM) SE Runtime Environment
JVM: Java HotSpot(TM) 64-Bit Server VM
Default Encoding: UTF-8
Language: en
Country: US
--></g></svg>