<?xml version="1.0" standalone="no"?>
<!DOCTYPE svg PUBLIC "-//W3C//DTD SVG 20010904//EN"
 "http://www.w3.org/TR/2001/REC-SVG-20010904/DTD/svg10.dtd">
<svg version="1.0" xmlns="http://www.w3.org/2000/svg"
 width="571.000000pt" height="374.000000pt" viewBox="0 0 571.000000 374.000000"
 preserveAspectRatio="xMidYMid meet">

<g transform="translate(0.000000,374.000000) scale(0.100000,-0.100000)"
fill="#000000" stroke="none">
<path d="M899 3703 c-35 -18 -64 -43 -84 -71 l-30 -44 -3 -219 -3 -219 110 0
111 0 0 180 0 180 1810 0 1810 0 0 -590 0 -590 -305 0 -305 0 0 -430 0 -430
-1505 0 -1505 0 0 125 0 125 -110 0 -110 0 0 -380 c0 -415 1 -423 58 -483 62
-65 15 -62 812 -67 l725 -5 3 -66 c4 -89 -20 -199 -63 -285 -37 -76 -106 -160
-149 -183 -14 -8 -26 -20 -26 -28 0 -11 120 -13 675 -13 547 0 675 2 675 13 0
7 -15 19 -34 25 -104 38 -180 208 -193 435 l-6 107 376 0 377 0 2 -187 3 -188
843 -3 842 -2 0 802 c0 442 3 874 7 961 l6 157 -436 0 -437 0 -2 629 -3 629
-30 43 c-19 27 -50 54 -84 71 l-53 28 -1857 0 -1857 0 -55 -27z m4791 -1468
l0 -75 -830 0 -830 0 0 75 0 75 830 0 830 0 0 -75z m-30 -950 l0 -835 -800 0
-800 0 0 835 0 835 800 0 800 0 0 -835z m-1650 -235 l0 -220 -1528 0 c-1468 0
-1529 1 -1562 19 -19 10 -48 35 -65 55 l-30 38 -3 164 -3 164 1595 0 1596 0 0
-220z m-777 -365 c15 -191 61 -331 135 -408 l36 -37 -598 0 -599 0 40 43 c116
126 162 267 163 505 0 1 183 1 408 0 l407 -3 8 -100z"/>
<path d="M4120 2235 c0 -24 3 -25 55 -25 52 0 55 1 55 25 0 24 -3 25 -55 25
-52 0 -55 -1 -55 -25z"/>
<path d="M4282 2238 c3 -21 9 -23 66 -26 61 -3 62 -2 62 23 0 24 -2 25 -66 25
-62 0 -65 -1 -62 -22z"/>
<path d="M4480 2234 c0 -24 2 -25 48 -22 40 3 47 6 50 26 3 20 0 22 -47 22
-48 0 -51 -2 -51 -26z"/>
<path d="M4392 1293 l3 -738 23 -3 22 -3 0 740 0 741 -25 0 -25 0 2 -737z"/>
<path d="M4210 1930 c0 -17 7 -20 40 -20 33 0 40 3 40 20 0 17 -7 20 -40 20
-33 0 -40 -3 -40 -20z"/>
<path d="M4210 1780 c0 -17 7 -20 40 -20 33 0 40 3 40 20 0 17 -7 20 -40 20
-33 0 -40 -3 -40 -20z"/>
<path d="M5125 1644 c-40 -87 -46 -107 -34 -115 8 -5 17 -9 20 -9 11 0 101
209 94 219 -16 27 -35 4 -80 -95z"/>
<path d="M4972 1687 c-23 -23 -42 -47 -42 -53 0 -5 20 -30 45 -54 38 -37 46
-41 60 -30 14 12 12 17 -20 50 l-35 36 35 34 c26 26 32 37 24 47 -17 19 -21
17 -67 -30z"/>
<path d="M5263 1713 c-4 -11 4 -25 27 -45 l34 -28 -34 -35 c-31 -32 -33 -37
-19 -50 14 -14 18 -14 42 5 14 12 36 34 47 50 l21 29 -42 46 c-44 48 -66 56
-76 28z"/>
<path d="M4210 1640 c0 -17 7 -20 40 -20 33 0 40 3 40 20 0 17 -7 20 -40 20
-33 0 -40 -3 -40 -20z"/>
<path d="M4210 1490 c0 -17 7 -20 40 -20 33 0 40 3 40 20 0 17 -7 20 -40 20
-33 0 -40 -3 -40 -20z"/>
<path d="M4210 1350 c0 -17 7 -20 40 -20 33 0 40 3 40 20 0 17 -7 20 -40 20
-33 0 -40 -3 -40 -20z"/>
<path d="M4210 1210 c0 -17 7 -20 40 -20 33 0 40 3 40 20 0 17 -7 20 -40 20
-33 0 -40 -3 -40 -20z"/>
<path d="M4210 1070 c0 -17 7 -20 40 -20 33 0 40 3 40 20 0 17 -7 20 -40 20
-33 0 -40 -3 -40 -20z"/>
<path d="M4841 983 c-28 -58 -49 -109 -45 -114 16 -27 39 -2 85 96 27 57 49
106 49 108 0 3 -9 7 -19 10 -16 4 -28 -13 -70 -100z"/>
<path d="M4692 1027 c-23 -23 -42 -50 -42 -58 0 -8 20 -34 43 -57 39 -38 45
-41 57 -27 11 14 8 21 -20 50 l-34 35 34 35 c30 31 32 37 19 50 -13 13 -20 10
-57 -28z"/>
<path d="M4980 1055 c-11 -13 -8 -21 20 -50 l34 -35 -31 -32 c-28 -29 -30 -35
-18 -51 12 -17 16 -15 57 28 23 26 45 52 47 57 3 10 -77 98 -90 98 -4 0 -12
-7 -19 -15z"/>
<path d="M4210 920 c0 -17 7 -20 40 -20 33 0 40 3 40 20 0 17 -7 20 -40 20
-33 0 -40 -3 -40 -20z"/>
<path d="M4210 780 c0 -17 7 -20 40 -20 33 0 40 3 40 20 0 17 -7 20 -40 20
-33 0 -40 -3 -40 -20z"/>
<path d="M4210 640 c0 -17 7 -20 40 -20 33 0 40 3 40 20 0 17 -7 20 -40 20
-33 0 -40 -3 -40 -20z"/>
</g>
</svg>
